<svg width="158" height="35" viewBox="0 0 158 35" fill="none" xmlns="http://www.w3.org/2000/svg">
<path d="M24.1462 12.6051V10.2513H10.8326V14.4045H16.9032L10.5599 22.6016V24.9463H24.2007V20.8022H17.8665L24.1462 12.6051Z" fill="#EF4136"/>
<path d="M34.7698 17.4852C34.7698 27.091 26.9907 34.8701 17.3849 34.8701C7.77913 34.8701 0 27.0819 0 17.4852C0 7.87944 7.78822 0.100311 17.3849 0.100311C26.9816 0.100311 34.7698 7.87944 34.7698 17.4852ZM17.3849 6.7253C11.4415 6.7253 6.62499 11.5418 6.62499 17.4852C6.62499 23.4286 11.4415 28.2451 17.3849 28.2451C23.3283 28.2451 28.1448 23.4286 28.1448 17.4852C28.1448 11.5418 23.3283 6.7253 17.3849 6.7253Z" fill="#EF4136"/>
<path d="M34.7698 17.4852C34.7698 7.88853 26.9815 0.100311 17.3849 0.100311C13.0954 0.100311 9.1786 1.66341 6.15237 4.23525C3.8986 10.6603 4.79829 17.6942 8.33344 23.2923C7.26108 21.6202 6.62494 19.6299 6.62494 17.4852C6.62494 11.5418 11.4415 6.7253 17.3849 6.7253C23.3283 6.7253 28.1448 11.5418 28.1448 17.4852C28.1448 23.4286 23.3283 28.2451 17.3849 28.2451C13.6861 28.2451 10.4236 26.3821 8.48793 23.5377C10.2691 26.2731 12.6865 28.6632 15.6764 30.4444C18.4209 32.0802 21.3835 33.0435 24.3643 33.3979C30.4894 30.7079 34.7698 24.6009 34.7698 17.4852Z" fill="#F68B1F"/>
<path d="M57.362 21.0658V24.0193H46.3567V21.9655L52.2274 14.1409H46.6748V11.1783H57.3075V13.2412L51.2096 21.0658H57.362Z" fill="#EF4136"/>
<path d="M63.1963 12.6505C63.1963 13.7047 62.3239 14.5135 61.2697 14.5135C60.1974 14.5135 59.325 13.7047 59.325 12.6505C59.325 11.5782 60.1974 10.7693 61.2697 10.7693C62.3239 10.7693 63.1963 11.5691 63.1963 12.6505ZM62.7692 24.0193H59.743V15.7767H62.7692V24.0193Z" fill="#EF4136"/>
<path d="M107.781 22.4653C107.781 23.5195 106.909 24.3283 105.854 24.3283C104.782 24.3283 103.91 23.5195 103.91 22.4653C103.91 21.3929 104.782 20.5841 105.854 20.5841C106.909 20.5841 107.781 21.3839 107.781 22.4653Z" fill="#EF4136"/>
<path d="M78.1821 18.2849C78.1821 21.7019 75.6557 24.3374 72.5841 24.3374C70.9119 24.3374 69.6941 23.7194 68.8672 22.6652V28.6086H65.9045V12.5506H68.8672V13.9046C69.6941 12.8505 70.9119 12.2325 72.5841 12.2325C75.6557 12.2325 78.1821 14.8679 78.1821 18.2849ZM75.2195 18.2849C75.2195 16.3583 73.8654 15.0497 72.0297 15.0497C70.2212 15.0497 68.8672 16.3583 68.8672 18.2849C68.8672 20.2115 70.2212 21.5202 72.0297 21.5202C73.8654 21.5202 75.2195 20.2115 75.2195 18.2849Z" fill="#EF4136"/>
<path d="M92.0773 18.2849C92.0773 21.7019 89.5509 24.3374 86.4793 24.3374C84.8071 24.3374 83.5894 23.7194 82.7624 22.6652V28.6086H79.8088V12.5506H82.7624V13.9046C83.5894 12.8505 84.8071 12.2325 86.4793 12.2325C89.5509 12.2325 92.0773 14.8679 92.0773 18.2849ZM89.1147 18.2849C89.1147 16.3583 87.7606 15.0497 85.9249 15.0497C84.1164 15.0497 82.7624 16.3583 82.7624 18.2849C82.7624 20.2115 84.1164 21.5202 85.9249 21.5202C87.7606 21.5202 89.1147 20.2115 89.1147 18.2849Z" fill="#EF4136"/>
<path d="M104.346 12.5506L100.174 24.0193C98.984 27.3182 97.0301 28.7632 94.122 28.6087V25.8551C95.7487 25.8823 96.5757 25.1917 97.1301 23.6558L92.4226 12.5506H95.6579L98.6386 20.257L101.183 12.5506H104.346Z" fill="#EF4136"/>
<path d="M109.49 18.2849C109.49 14.8679 112.061 12.2325 115.542 12.2325C117.787 12.2325 119.74 13.423 120.677 15.1951L118.132 16.6855C117.678 15.7495 116.687 15.1497 115.515 15.1497C113.752 15.1497 112.443 16.4583 112.443 18.294C112.443 20.1025 113.752 21.4111 115.515 21.4111C116.705 21.4111 117.696 20.8386 118.15 19.9026L120.722 21.3657C119.731 23.156 117.787 24.3465 115.542 24.3465C112.061 24.3465 109.49 21.7019 109.49 18.2849Z" fill="#F68B1F"/>
<path d="M133.954 12.5506V24.0193H131V22.6652C130.173 23.7013 128.937 24.3374 127.265 24.3374C124.212 24.3374 121.694 21.7019 121.694 18.2849C121.694 14.8679 124.221 12.2325 127.265 12.2325C128.937 12.2325 130.173 12.8777 131 13.9046V12.5506H133.954ZM130.991 18.2849C130.991 16.3583 129.637 15.0497 127.801 15.0497C125.993 15.0497 124.639 16.3583 124.639 18.2849C124.639 20.2115 125.993 21.5202 127.801 21.5202C129.637 21.5202 130.991 20.2115 130.991 18.2849Z" fill="#F68B1F"/>
<path d="M145.214 20.675C145.214 23.156 143.06 24.3465 140.606 24.3465C138.316 24.3465 136.617 23.3832 135.79 21.6202L138.361 20.1752C138.679 21.1112 139.461 21.6656 140.606 21.6656C141.542 21.6656 142.187 21.3475 142.187 20.675C142.187 19.0029 136.271 19.9207 136.271 15.8858C136.271 13.5502 138.271 12.2416 140.624 12.2416C142.478 12.2416 144.087 13.0867 144.977 14.6771L142.451 16.0494C142.106 15.3132 141.469 14.877 140.615 14.877C139.879 14.877 139.288 15.1951 139.288 15.8131C139.297 17.5125 145.214 16.4492 145.214 20.675Z" fill="#F68B1F"/>
<path d="M158 16.9854V24.0284H155.046V17.358C155.046 15.7949 154.101 14.9952 152.775 14.9952C151.33 14.9952 150.248 15.8403 150.248 17.8396V24.0284H147.286V7.97031H150.248V13.841C150.939 12.805 152.129 12.2325 153.665 12.2325C156.101 12.2325 158 13.9319 158 16.9854Z" fill="#F68B1F"/>
</svg>
