<svg width="17" height="21" viewBox="0 0 17 21" fill="none" xmlns="http://www.w3.org/2000/svg">
<path d="M13.0306 15.34H3.61062C3.52062 15.34 3.41062 15.35 3.31062 15.36C3.10062 15.4 2.92062 15.51 2.81062 15.67C2.69062 15.84 2.65062 16.06 2.70062 16.24C2.73062 16.37 2.87062 16.81 3.54062 16.81H13.0006C13.0806 16.81 13.1706 16.8 13.2606 16.79C13.6306 16.74 13.9106 16.41 13.8806 16.04C13.8706 15.62 13.5306 15.34 13.0306 15.34Z" fill="#707272"/>
<path d="M2.96051 9.49997C3.10051 9.60997 3.26051 9.65997 3.41051 9.65997C3.44051 9.65997 3.46051 9.65997 3.49051 9.65997H8.76051C8.99051 9.65997 9.20051 9.57996 9.38051 9.42996C9.52051 9.28996 9.59051 9.09997 9.58051 8.91997V8.84996C9.53051 8.43996 9.15051 8.15996 8.76051 8.19996H3.51051C3.30051 8.18996 3.07051 8.26997 2.89051 8.41997C2.74051 8.55997 2.66051 8.74997 2.67051 8.93997V8.99997C2.70051 9.18997 2.80051 9.36997 2.96051 9.49997Z" fill="#707272"/>
<path d="M16.5806 11.95C16.5806 9.99 16.5806 8 16.5806 6.05C16.5906 5.72 16.4506 5.39999 16.2006 5.17999C14.7006 3.76999 12.9306 2.1 11.1806 0.410004C10.9006 0.130004 10.5406 0.01 10.1406 0C8.35057 0.01 6.54057 0.00999451 4.76057 0.00999451H2.97057H2.90057C2.37057 -0.0200055 1.82057 0.10999 1.34057 0.37999C0.490567 0.84999 -0.0194327 1.74 0.00056732 2.72V17.9C0.00056732 18.36 0.150567 18.8 0.420567 19.17C0.950567 19.94 1.83057 20.4 2.75057 20.4C2.80057 20.4 2.85057 20.4 2.89057 20.4L2.87057 20.2L2.89057 20.4H13.6706C13.8906 20.41 14.1206 20.39 14.3706 20.35C15.6606 20.13 16.5906 19.02 16.5806 17.71V11.95ZM1.51057 2.56999C1.55057 1.91999 2.12057 1.43 2.77057 1.47H2.78057C3.59057 1.46 4.66057 1.45999 5.75057 1.48999H9.67057V2.37C9.67057 2.96 9.67057 3.58 9.69057 4.2C9.79057 5.41 10.7206 6.38 11.9406 6.56C12.1306 6.58 12.3306 6.59999 12.5206 6.59999H15.0306V17.63C15.0306 17.71 15.0306 17.79 15.0206 17.86C14.9806 18.18 14.8206 18.47 14.5606 18.67C14.3006 18.87 13.9906 18.96 13.6406 18.92H2.79057C2.21057 18.97 1.65057 18.58 1.51057 18.02C1.49057 17.91 1.48057 17.78 1.48057 17.66V2.73999L1.51057 2.56999ZM12.3106 5.09999C11.6906 5.07999 11.2006 4.57999 11.1906 3.95999V2.56999L13.8206 5.12C13.3306 5.1 12.8206 5.09999 12.3106 5.09999Z" fill="#707272"/>
<path d="M3.48062 13.24L13.1106 13.25H13.2006C13.5806 13.22 13.8806 12.9 13.8806 12.52C13.8806 12.07 13.5606 11.79 13.0706 11.79H3.41062C3.18062 11.79 2.95062 11.91 2.80062 12.12C2.66062 12.33 2.64062 12.57 2.72062 12.78C2.85062 13.07 3.15062 13.26 3.48062 13.24Z" fill="#707272"/>
</svg>
