<svg width="18" height="23" viewBox="0 0 18 23" fill="none" xmlns="http://www.w3.org/2000/svg">
<path d="M8.48264 9.16879C8.49373 9.16879 8.49373 9.16879 8.50482 9.16879H9.50276C9.87976 9.16879 10.1902 9.45709 10.1902 9.80082C10.1902 10.1446 9.87976 10.4329 9.50276 10.4329H7.50687C7.49578 10.4329 7.49578 10.4329 7.48469 10.4329C7.05225 10.4329 6.68634 10.7544 6.67525 11.1647C6.66416 11.3643 6.74178 11.5528 6.88593 11.6969C7.03008 11.8522 7.22966 11.9409 7.45143 11.9519H8.19434V12.5951C8.20543 12.7947 8.28305 12.9721 8.43829 13.1162C8.58243 13.2493 8.78202 13.3269 8.9927 13.3269C9.00379 13.3269 9.02596 13.3269 9.03705 13.3269C9.45841 13.3158 9.80214 12.9942 9.81323 12.5951V11.9409C10.412 11.8632 10.9331 11.586 11.3101 11.1314C11.6761 10.699 11.8424 10.1556 11.798 9.61232C11.6871 8.49241 10.7114 7.66079 9.50276 7.66079H8.50482C8.12781 7.66079 7.81734 7.37249 7.81734 7.02876C7.81734 6.68502 8.12781 6.39672 8.50482 6.39672H10.4785C10.7003 6.39672 10.9221 6.33019 11.0884 6.18605C11.2325 6.05299 11.3212 5.86449 11.3323 5.67599C11.3434 5.4764 11.2658 5.2879 11.1216 5.14375C10.9775 4.98852 10.7779 4.89981 10.5561 4.88872H9.80214V4.25669C9.81323 4.0571 9.73561 3.8686 9.59147 3.72445C9.44732 3.56922 9.24773 3.48051 9.02596 3.46942C9.01488 3.46942 9.01488 3.46942 9.00379 3.46942C8.57135 3.46942 8.20543 3.80207 8.19434 4.20125V4.9109C7.59558 4.98852 7.05225 5.27681 6.68634 5.72034C6.33152 6.15278 6.16519 6.68502 6.20954 7.22834C6.32043 8.33717 7.29619 9.16879 8.48264 9.16879Z" fill="#707272"/>
<path d="M5.21253 16.8307H5.26797H12.7193C12.941 16.8196 13.1517 16.7309 13.2959 16.5646C13.4289 16.4204 13.4955 16.2319 13.4844 16.0434C13.4844 15.6554 13.1517 15.3338 12.7304 15.3116H5.26797C4.81335 15.3005 4.44744 15.6221 4.43635 16.0434C4.42526 16.243 4.50288 16.4315 4.64702 16.5757C4.79117 16.7309 5.00185 16.8196 5.21253 16.8307Z" fill="#707272"/>
<path d="M17.7967 0.243939C17.6414 0.0887033 17.4308 0 17.209 0H0.798355C0.365913 0 0 0.354823 0 0.765089V19.726C0 19.9256 0.0887061 20.1252 0.232854 20.2583L2.28418 22.1765C2.60574 22.4759 3.10471 22.4759 3.42627 22.1765L4.90101 20.7905L6.38684 22.1765C6.54208 22.3207 6.75275 22.3983 6.95234 22.3983C7.16302 22.3983 7.36261 22.3207 7.51784 22.1765L8.99258 20.7905L10.4784 22.1765C10.8 22.4759 11.2989 22.4759 11.6205 22.1765L13.0952 20.7905L14.57 22.1765C14.8915 22.4759 15.3905 22.4759 15.7121 22.1765L17.7634 20.2583C17.9186 20.1141 17.9963 19.9256 17.9963 19.726V0.765089C18.0184 0.576588 17.9408 0.388086 17.7967 0.243939ZM16.3995 1.53018V19.4156L15.1577 20.5687L13.6829 19.1827C13.3614 18.8833 12.8624 18.8833 12.5408 19.1827L11.0661 20.5687L9.59135 19.1827C9.26979 18.8833 8.77082 18.8833 8.44926 19.1827L6.97452 20.5687L5.49978 19.1827C5.17822 18.8833 4.67925 18.8833 4.35769 19.1827L2.88295 20.5798L1.64106 19.4266V1.53018H16.3995Z" fill="#707272"/>
</svg>
