<svg width="21" height="21" viewBox="0 0 21 21" fill="none" xmlns="http://www.w3.org/2000/svg">
<path d="M10.1 0C4.53 0 0 4.53 0 10.1C0 15.67 4.53 20.2 10.1 20.2C15.67 20.19 20.2 15.66 20.2 10.1C20.2 4.53 15.67 0 10.1 0ZM10.1 18.7C5.36 18.7 1.5 14.84 1.5 10.1C1.5 5.36 5.36 1.5 10.1 1.5C14.84 1.5 18.7 5.36 18.7 10.1C18.7 14.84 14.84 18.7 10.1 18.7Z" fill="#707272"/>
<path d="M11.73 9.92C10.41 9.35 8.90997 9.51 7.71997 10.33C6.55997 11.1 5.82997 12.4 5.77997 13.77C5.72997 14.04 5.79997 14.31 5.96997 14.54C6.13997 14.71 6.36997 14.81 6.60997 14.81C6.63997 14.81 6.67997 14.81 6.70997 14.8H13.6C13.82 14.82 14.05 14.74 14.24 14.56C14.38 14.39 14.45 14.16 14.42 13.92C14.41 13.69 14.38 13.44 14.32 13.13C14.05 11.71 13.08 10.5 11.73 9.92ZM12.89 13.3H7.34997C7.44997 12.81 7.68997 12.36 8.02997 12.01C8.51997 11.48 9.17997 11.15 9.89997 11.09C10.66 11.03 11.41 11.28 11.98 11.8C12.44 12.19 12.75 12.72 12.89 13.3Z" fill="#707272"/>
<path d="M10.1 9.18H10.11C10.71 9.18 11.3 8.93 11.72 8.5C12.15 8.06 12.39 7.48 12.39 6.87C12.39 6.25 12.15 5.65 11.72 5.2C11.3 4.76 10.73 4.51 10.12 4.5C8.86002 4.52 7.84002 5.56 7.84002 6.82C7.83002 7.44 8.07002 8.05 8.49002 8.49C8.91002 8.93 9.49002 9.18 10.1 9.18ZM9.29002 6.82C9.29002 6.6 9.38002 6.39 9.54002 6.24C9.69002 6.08 9.90002 5.99 10.12 5.99C10.59 6.01 10.95 6.39 10.95 6.86C10.94 7.08 10.85 7.28999 10.7 7.43999C10.53 7.60999 10.32 7.7 10.1 7.7C9.89002 7.7 9.67002 7.61 9.52002 7.46C9.37002 7.29 9.28002 7.06 9.29002 6.82Z" fill="#707272"/>
</svg>
