<svg width="18" height="21" viewBox="0 0 18 21" fill="none" xmlns="http://www.w3.org/2000/svg">
<path d="M9.9335 6.90001H9.9435L9.9635 6.89C10.5735 6.89 11.1535 6.64 11.5735 6.2C12.0035 5.75 12.2335 5.17001 12.2335 4.57001C12.2335 3.93001 11.9935 3.33 11.5635 2.89C11.1435 2.45 10.5535 2.19 9.9435 2.19C8.6835 2.21 7.6535 3.26 7.6535 4.52C7.6435 5.15 7.8835 5.76001 8.3035 6.21001C8.7435 6.65001 9.3335 6.90001 9.9335 6.90001ZM9.0435 4.52C9.0435 4.28 9.1335 4.06 9.3135 3.89C9.4835 3.72 9.7035 3.62 9.9435 3.61C10.4635 3.63 10.8535 4.05 10.8435 4.56C10.8435 4.8 10.7535 5.03 10.5835 5.2C10.4135 5.38 10.1735 5.48 9.9335 5.48C9.6935 5.48 9.4635 5.38 9.3135 5.22C9.1335 5.02 9.0335 4.78 9.0435 4.52Z" fill="#707272"/>
<path d="M6.35356 12.68C6.39356 12.68 6.42356 12.68 6.46356 12.67H11.0336L12.0136 12.66H13.5736C13.5836 12.66 13.6036 12.66 13.6136 12.66C13.8336 12.66 14.0336 12.58 14.1836 12.43C14.3236 12.26 14.3836 12.03 14.3536 11.82C14.3436 11.59 14.3136 11.33 14.2536 11.02C13.9736 9.56 12.9836 8.34 11.6236 7.75C10.2736 7.18 8.75356 7.34 7.55356 8.17C6.36356 8.96 5.62356 10.27 5.57356 11.68C5.52356 11.94 5.58356 12.2 5.74356 12.43C5.90356 12.59 6.12356 12.68 6.35356 12.68ZM9.72356 8.86C9.76356 8.86 9.80356 8.86 9.84356 8.85C9.87356 8.85 9.91356 8.85 9.94356 8.85C10.6636 8.85 11.3636 9.12 11.9036 9.6C12.3936 10.02 12.7236 10.59 12.8636 11.24H7.03356C7.14356 10.71 7.39356 10.21 7.76356 9.82001C8.26356 9.27001 8.97356 8.92 9.72356 8.86Z" fill="#707272"/>
<path d="M16.2835 0H2.18353C0.913529 0.07 -0.0664713 1.17 0.00352867 2.44V17.63C-0.00647133 17.85 0.0135287 18.07 0.0735287 18.32C0.313529 19.36 1.24353 20.09 2.29353 20.09C2.32353 20.09 2.35353 20.09 2.38353 20.09H14.8635L15.4135 20.1C15.7235 20.1 16.0435 20.1 16.3635 20.09C16.5535 20.08 16.7435 20 16.8935 19.88C17.0535 19.72 17.1335 19.49 17.0935 19.26V0.850006C17.1035 0.270006 16.8435 0 16.2835 0ZM15.6835 1.42V18.66H4.20353V1.42H15.6835ZM1.36353 2.48C1.35353 2.17 1.47353 1.88 1.68353 1.66C1.85353 1.5 2.07353 1.41001 2.31353 1.40001H2.39353C2.52353 1.41001 2.64353 1.41 2.77353 1.41H2.80353V18.67H2.65353C2.45353 18.68 2.24353 18.66 2.02353 18.62C1.63353 18.52 1.36353 18.17 1.37353 17.77V13.83C1.37353 10.11 1.37353 6.26 1.36353 2.48Z" fill="#707272"/>
<path d="M13.6535 14.09C13.6435 14.09 13.6335 14.09 13.6235 14.09H6.30353C6.28353 14.09 6.27353 14.09 6.26353 14.09C5.97353 14.09 5.71353 14.28 5.61353 14.57C5.54353 14.78 5.57353 15.02 5.70353 15.21C5.84353 15.4 6.05353 15.51 6.28353 15.51C6.29353 15.51 6.30353 15.51 6.31353 15.51H10.9335L11.7435 15.52C12.3435 15.52 12.9735 15.52 13.5835 15.51C13.7635 15.51 13.9535 15.44 14.1235 15.32C14.3535 15.12 14.4235 14.81 14.2935 14.55C14.2035 14.27 13.9435 14.09 13.6535 14.09Z" fill="#707272"/>
<path d="M6.2535 17.7C6.2635 17.7 6.2735 17.7 6.2835 17.7H13.2535C13.3235 17.7 13.3935 17.7 13.4635 17.7C13.5335 17.7 13.6035 17.7 13.6735 17.7C13.8535 17.69 14.0235 17.62 14.1535 17.48C14.2735 17.35 14.3435 17.17 14.3335 16.99C14.3335 16.62 14.0535 16.32 13.6835 16.29H6.3235C6.2735 16.29 6.2135 16.29 6.1535 16.3C5.8835 16.33 5.6635 16.52 5.5835 16.78C5.5135 16.99 5.5435 17.22 5.6735 17.41C5.8135 17.59 6.0335 17.7 6.2535 17.7Z" fill="#707272"/>
</svg>
