<svg width="10" height="7" viewBox="0 0 10 7" fill="none" xmlns="http://www.w3.org/2000/svg">
<path d="M9.48145 0.225158C9.22016 -0.0648422 8.78468 -0.074841 8.50403 0.195159C8.49435 0.205159 8.48468 0.215158 8.475 0.225158L4.84597 4.15515L1.21694 0.225158C0.955646 -0.0648418 0.52016 -0.0748406 0.239515 0.195159C0.229837 0.205159 0.220161 0.215158 0.210484 0.225158C-0.0701615 0.535158 -0.0701615 1.00515 0.210484 1.31515L4.24597 5.68515C4.275 5.72515 4.29436 5.76513 4.33307 5.79513C4.60403 6.08513 5.05887 6.09515 5.33952 5.81515C5.3492 5.80515 5.34919 5.80513 5.35887 5.79513C5.3879 5.76513 5.41694 5.72515 5.44597 5.68515L9.48145 1.31515C9.7621 1.00515 9.7621 0.535158 9.48145 0.225158Z" fill="white"/>
</svg>
