<svg width="21" height="18" viewBox="0 0 21 18" fill="none" xmlns="http://www.w3.org/2000/svg">
<path d="M20.03 8.755L10.93 0.345C10.44 -0.115 9.67 -0.115 9.18 0.345L0.16 8.705C0.14 8.725 0 8.855 0 9.045C0 9.155 0.05 9.265 0.14 9.355C0.24 9.455 0.36 9.585 0.48 9.715L0.62 9.875C0.82 10.095 1.07 10.025 1.19 9.925L1.71 9.435V16.065C1.71 16.695 2.22 17.205 2.86 17.205H7.55C8.24 17.205 8.81 16.645 8.81 15.955V10.655C8.81 10.485 8.95 10.345 9.12 10.345H11.08C11.24 10.345 11.37 10.475 11.37 10.635V15.965C11.37 16.655 11.93 17.215 12.63 17.215H17.32C17.95 17.215 18.47 16.705 18.47 16.075V9.425L19.06 9.975C19.07 10.005 19.09 10.025 19.12 10.045C19.19 10.085 19.29 10.105 19.4 10.025C19.42 10.015 19.43 10.005 19.45 9.985L20.09 9.285C20.14 9.245 20.21 9.145 20.19 9.005C20.17 8.875 20.05 8.765 20.03 8.755ZM11.46 8.735H8.66C7.86 8.735 7.2 9.395 7.2 10.195V15.515C7.2 15.565 7.16 15.605 7.11 15.605H3.49C3.37 15.605 3.27 15.515 3.27 15.385V7.975L9.55 2.145C9.83 1.875 10.28 1.875 10.57 2.145L16.85 7.965V15.395C16.85 15.515 16.76 15.615 16.63 15.615H13.01C12.95 15.615 12.92 15.575 12.92 15.525V10.195C12.92 9.395 12.27 8.735 11.46 8.735Z" fill="#51596C"/>
</svg>
