<svg width="21" height="15" viewBox="0 0 21 15" fill="none" xmlns="http://www.w3.org/2000/svg">
<path d="M9.9875 13.9975C7.7675 13.9975 5.5475 14.0275 3.3375 13.9875C1.9475 13.9775 0.7175 13.0875 0.2675 11.7775C0.0875 11.3275 -0.0025 10.8375 0.0075 10.3475C-0.0025 9.0475 -0.0025 7.7475 0.0075 6.4475C0.0075 6.2475 0.0575 6.0475 0.1475 5.8575C0.8475 4.3475 1.5575 2.8375 2.2675 1.3275C2.5875 0.5175 3.3775 -0.0125 4.2475 0.0075C8.0575 -0.0025 11.8675 -0.0025 15.6775 0.0075C16.5475 -0.0125 17.3375 0.4975 17.6675 1.3075C18.3975 2.8175 19.1275 4.3275 19.8475 5.8475C19.9375 6.0475 19.9875 6.2575 19.9875 6.4775C19.9975 7.7475 19.9975 9.0275 19.9975 10.2975C20.0575 11.6075 19.3975 12.8475 18.2775 13.5375C17.7375 13.8675 17.1175 14.0275 16.4875 14.0075C14.2975 13.9975 12.1375 13.9975 9.9875 13.9975ZM1.7875 5.5975H5.8875C6.2775 5.5575 6.6175 5.8375 6.6575 6.2275C6.8175 6.9775 7.1975 7.6675 7.7375 8.2175C8.8275 9.2175 10.4475 9.3775 11.7175 8.6075C12.5275 8.0475 13.0775 7.1975 13.2675 6.2275C13.2975 5.8375 13.6375 5.5575 14.0275 5.5875H18.1675C18.1375 5.5075 18.1175 5.4575 18.0875 5.4075C17.5475 4.2475 16.9975 3.0975 16.4575 1.9375C16.3375 1.6275 16.0275 1.4175 15.6975 1.4375C11.8975 1.4375 8.1075 1.4375 4.3075 1.4375C3.9575 1.4175 3.6375 1.6275 3.5175 1.9475C2.9775 3.1075 2.4175 4.2475 1.8575 5.4075C1.8475 5.4575 1.8275 5.5175 1.7875 5.5975ZM1.3875 7.0375C1.3775 7.0575 1.3775 7.0775 1.3675 7.1075C1.3675 8.2475 1.3475 9.3875 1.3775 10.5275C1.3675 11.6675 2.2875 12.5975 3.4275 12.6075C5.5475 12.6175 7.6675 12.6075 9.7675 12.6075C12.0675 12.6075 14.3575 12.6075 16.6475 12.5975C17.6875 12.5375 18.5075 11.6975 18.5575 10.6575C18.5875 9.4675 18.5675 8.2875 18.5775 7.0975C18.5775 7.0775 18.5675 7.0575 18.5575 7.0375C18.5375 7.0275 18.5075 7.0275 18.4875 7.0275C17.1875 7.0275 15.8875 7.0275 14.5875 7.0275C14.5175 7.0475 14.4575 7.0975 14.4175 7.1575C14.3075 7.3775 14.2275 7.6075 14.1175 7.8175C13.2675 9.8075 11.1075 10.8975 9.0175 10.4175C7.3675 10.0575 6.0375 8.8275 5.5575 7.1975C5.5075 7.0575 5.4575 7.0075 5.3075 7.0075C4.0575 7.0175 2.8075 7.0075 1.5675 7.0075C1.5075 7.0275 1.4475 7.0375 1.3875 7.0375Z" fill="white"/>
</svg>
