<svg width="21" height="17" viewBox="0 0 21 17" fill="none" xmlns="http://www.w3.org/2000/svg">
<path d="M17.12 8.78001H15.16C14.9 8.78001 14.65 8.81003 14.42 8.87003C13.9 7.88003 12.9 7.27002 11.78 7.27002H8.32C7.21 7.27002 6.2 7.88003 5.68 8.87003C5.45 8.81003 5.2 8.78001 4.94 8.78001H2.98C1.34 8.78001 0 10.12 0 11.76V14.89C0 15.89 0.81 16.7 1.81 16.7H18.29C19.29 16.7 20.1 15.89 20.1 14.89V11.76C20.09 10.11 18.75 8.78001 17.12 8.78001ZM14.75 10.09C14.88 10.06 15.02 10.04 15.15 10.04H17.11C18.05 10.04 18.82 10.81 18.82 11.75V14.88C18.82 15.18 18.58 15.42 18.28 15.42H14.75V10.24C14.75 10.19 14.75 10.14 14.75 10.09ZM13.49 10.25L13.48 15.42H6.61V10.25C6.61 9.31002 7.38 8.54002 8.32 8.54002H11.78C12.72 8.54002 13.49 9.30002 13.49 10.25ZM5.34 10.1V15.42H1.8C1.5 15.42 1.26 15.18 1.26 14.88V11.76C1.26 10.82 2.03 10.05 2.97 10.05H4.93C5.07 10.05 5.21 10.06 5.34 10.1Z" fill="#707272"/>
<path d="M3.96006 8.52998C5.42006 8.52998 6.61006 7.33999 6.61006 5.87999C6.60006 4.41999 5.41006 3.22998 3.96006 3.22998C2.50006 3.22998 1.31006 4.41999 1.31006 5.87999C1.31006 7.34999 2.49006 8.52998 3.96006 8.52998ZM2.57006 5.88998C2.57006 5.12998 3.19006 4.50999 3.95006 4.50999C4.71006 4.50999 5.33006 5.12998 5.33006 5.88998C5.33006 6.64998 4.71006 7.26999 3.95006 7.26999C3.19006 7.26999 2.57006 6.65998 2.57006 5.88998Z" fill="#707272"/>
<path d="M10.05 7.06C12 7.06 13.58 5.48 13.58 3.53C13.57 1.59 11.98 0.01 10.04 0C8.10002 0 6.52002 1.58 6.52002 3.53C6.52002 5.48 8.11002 7.06 10.05 7.06ZM7.78002 3.53C7.78002 2.28 8.79002 1.27 10.04 1.27C11.29 1.27 12.3 2.28 12.3 3.53C12.3 4.78 11.29 5.79001 10.04 5.79001C8.79002 5.79001 7.78002 4.78 7.78002 3.53Z" fill="#707272"/>
<path d="M16.14 8.52998C17.6 8.52998 18.79 7.33999 18.79 5.87999C18.79 4.41999 17.6 3.22998 16.14 3.22998C14.68 3.22998 13.49 4.41999 13.49 5.87999C13.49 7.34999 14.68 8.52998 16.14 8.52998ZM14.76 5.88998C14.76 5.12998 15.38 4.50999 16.14 4.50999C16.9 4.50999 17.52 5.12998 17.52 5.88998C17.52 6.64998 16.9 7.26999 16.14 7.26999C15.38 7.26999 14.76 6.65998 14.76 5.88998Z" fill="#707272"/>
</svg>
