<svg width="16" height="16" xmlns="http://www.w3.org/2000/svg" fill="none">
<path id="svg_1" fill="#707272" d="m8.1002,0c-4.35674,0 -7.90001,3.54327 -7.90001,7.9c0.00001,4.3567 3.54327,7.9 7.90001,7.9c4.3567,-0.0078 7.9,-3.5511 7.9,-7.9c0,-4.35673 -3.5433,-7.9 -7.9,-7.9zm0,14.6267c-3.70753,0 -6.72674,-3.0192 -6.72674,-6.7267c0,-3.70753 3.01921,-6.72673 6.72674,-6.72673c3.7075,0 6.7267,3.0192 6.7267,6.72673c0,3.7075 -3.0192,6.7267 -6.7267,6.7267z"/>
<path id="svg_2" fill="#707272" d="m9.36802,7.89787c-1.03248,-0.44584 -2.20575,-0.32069 -3.13654,0.3207c-0.90733,0.60227 -1.47832,1.6191 -1.51743,2.69069c-0.0391,0.21119 0.01565,0.42238 0.14862,0.60228c0.13297,0.13297 0.31287,0.21118 0.50059,0.21118c0.02347,0 0.05475,0 0.07822,-0.00782l5.38921,0c0.17208,0.01564 0.35198,-0.04693 0.50059,-0.18772c0.10951,-0.13297 0.16426,-0.31287 0.1408,-0.5006c-0.00783,-0.1799 -0.03129,-0.37544 -0.07822,-0.61792c-0.21119,-1.11069 -0.9699,-2.05712 -2.02584,-2.51079zm0.90732,2.64376l-4.33327,0c0.07822,-0.38327 0.26595,-0.73524 0.53189,-1.009c0.38326,-0.41456 0.8995,-0.67268 1.46267,-0.71961c0.59445,-0.04693 1.18109,0.14861 1.62693,0.55534c0.3598,0.30505 0.60228,0.71961 0.71178,1.17327z"/>
<path id="svg_3" fill="#707272" d="m7.82322,6.66439l0.00782,0c0.46931,0 0.93079,-0.19555 1.25931,-0.53189c0.33633,-0.34415 0.52406,-0.79782 0.52406,-1.27495c0,-0.48495 -0.18773,-0.95426 -0.52406,-1.30624c-0.32852,-0.34415 -0.77436,-0.5397 -1.25149,-0.54752c-0.98554,0.01565 -1.78336,0.82911 -1.78336,1.81465c-0.00783,0.48496 0.1799,0.96208 0.50841,1.30624c0.32852,0.34416 0.78218,0.53971 1.25931,0.53971zm-0.63356,-1.84595c0,-0.17207 0.07039,-0.33633 0.19554,-0.45366c0.11733,-0.12515 0.28158,-0.19554 0.45366,-0.19554c0.36763,0.01564 0.64921,0.31287 0.64921,0.68049c-0.00782,0.17208 -0.07822,0.33633 -0.19554,0.45366c-0.13297,0.13297 -0.29723,0.20337 -0.46931,0.20337c-0.16426,0 -0.33634,-0.07039 -0.45366,-0.18772c-0.11733,-0.13297 -0.18773,-0.31287 -0.1799,-0.5006z"/>
</svg>
