<svg width="7" height="10" viewBox="0 0 7 10" fill="none" xmlns="http://www.w3.org/2000/svg">
<path d="M0.225646 0.210442C-0.0643543 0.471733 -0.0743531 0.907218 0.195647 1.18786C0.205647 1.19754 0.215646 1.20722 0.225646 1.21689L4.15564 4.84593L0.225646 8.47496C-0.0643536 8.73625 -0.0743523 9.17173 0.195648 9.45238C0.205648 9.46206 0.215646 9.47173 0.225646 9.48141C0.535647 9.76206 1.00564 9.76206 1.31564 9.48141L5.68564 5.44593C5.72564 5.4169 5.76562 5.39754 5.79562 5.35883C6.08562 5.08786 6.09564 4.63302 5.81564 4.35238C5.80564 4.3427 5.80562 4.3427 5.79562 4.33302C5.76562 4.30399 5.72564 4.27496 5.68564 4.24592L1.31564 0.210442C1.00564 -0.070203 0.535646 -0.070203 0.225646 0.210442Z" fill="#CFD2D3"/>
</svg>
