<svg width="17" height="17" viewBox="0 0 17 17" fill="none" xmlns="http://www.w3.org/2000/svg">
<path d="M11.442 12.6776C10.922 12.9676 10.452 13.2876 9.94196 13.5176C6.58196 15.0376 2.62195 13.6976 0.861947 10.4576C-0.648053 7.65764 -0.118045 4.20764 2.15196 1.98764C4.95195 -0.722362 9.42197 -0.652362 12.132 2.14764C14.532 4.62764 14.792 8.47764 12.742 11.2476C12.622 11.4076 12.642 11.4876 12.782 11.6176C13.772 12.6076 14.762 13.5976 15.742 14.5876C16.012 14.8176 16.092 15.2076 15.932 15.5276C15.782 15.8776 15.422 16.0776 15.042 16.0276C14.842 15.9776 14.672 15.8776 14.522 15.7376C13.522 14.7476 12.532 13.7476 11.542 12.7576C11.492 12.7376 11.452 12.6976 11.442 12.6776ZM7.08195 1.30764C3.90195 1.27764 1.29197 3.83764 1.26197 7.01764C1.23197 10.1976 3.79196 12.8076 6.97196 12.8376C10.142 12.8676 12.732 10.3376 12.792 7.16764C12.822 3.97764 10.2719 1.35764 7.08195 1.30764Z" fill="#A2A2A2"/>
</svg>
