<svg width="16" height="19" viewBox="0 0 16 19" fill="none" xmlns="http://www.w3.org/2000/svg">
<path fill-rule="evenodd" clip-rule="evenodd" d="M6.96311 18.7556C7.15447 18.8361 7.34578 18.9166 7.5356 18.9999C7.63108 18.9999 7.72656 18.9999 7.82311 18.9988C8.02168 18.9109 8.22192 18.826 8.4222 18.7411C8.86679 18.5527 9.31163 18.3642 9.73912 18.1414C12.3621 16.7752 14.0882 14.6371 14.851 11.686C15.2233 10.2432 15.3627 8.76927 15.3777 7.28204C15.3868 6.40742 15.3757 5.5328 15.3645 4.65818C15.3599 4.28993 15.3552 3.92167 15.352 3.55342C15.3477 3.00918 15.116 2.77815 14.586 2.75149C14.5401 2.74912 14.4942 2.74677 14.4482 2.74443C13.9576 2.71938 13.4666 2.69431 12.98 2.62932C11.6766 2.45494 10.4611 2.01177 9.37866 1.23094C9.02905 0.978467 8.70221 0.690601 8.37612 0.403387C8.30197 0.338079 8.22786 0.272804 8.15353 0.207986C7.8392 -0.0652463 7.512 -0.0741319 7.20625 0.210208C7.16441 0.249193 7.12324 0.289212 7.08199 0.329305C7.0492 0.361175 7.01637 0.393092 6.98311 0.424573C5.58955 1.73964 3.9428 2.46715 2.07721 2.67152C1.75197 2.70709 1.4251 2.72185 1.09815 2.73661C0.965682 2.74259 0.833203 2.74857 0.700814 2.75594C0.272768 2.78037 0.00993302 3.03028 0.00886023 3.44235C0.0080855 3.82041 0.00650265 4.19853 0.00491972 4.57666C-7.31959e-05 5.7694 -0.00506686 6.96231 0.015297 8.15395C0.0335345 9.25576 0.188017 10.3454 0.440124 11.4183C1.17499 14.5383 2.9569 16.7896 5.73116 18.2014C6.13216 18.4059 6.54775 18.5808 6.96311 18.7556ZM1.28999 4.15531C1.29101 4.13642 1.29205 4.11723 1.293 4.09766C1.45134 4.07787 1.60816 4.05935 1.76381 4.04098C2.13228 3.99747 2.49416 3.95474 2.85392 3.89774C4.59399 3.6245 6.13989 2.897 7.48732 1.72632C7.63537 1.59747 7.7169 1.59303 7.86709 1.72409C9.26709 2.94476 10.8827 3.67338 12.6947 3.93106C12.9995 3.97485 13.3054 4.00838 13.6163 4.04246C13.7627 4.05851 13.9102 4.07469 14.0593 4.09211C14.0604 4.10653 14.0618 4.12134 14.0632 4.13643C14.067 4.17832 14.0711 4.2224 14.0711 4.26649C14.0698 4.6877 14.0723 5.10902 14.0747 5.53028C14.0805 6.51311 14.0863 7.49567 14.0443 8.47605C13.9756 10.0821 13.6902 11.6515 12.9854 13.1121C12.2623 14.6127 11.1799 15.7656 9.78633 16.5942C9.32948 16.8652 8.84626 17.0891 8.363 17.313C8.17105 17.4019 7.97909 17.4908 7.78878 17.5827C7.73621 17.6082 7.6579 17.6149 7.60426 17.5949C6.32227 17.1062 5.13254 16.452 4.11445 15.4935C2.82602 14.2806 2.04825 12.7678 1.6556 11.0251C1.33376 9.59453 1.25223 8.14173 1.2576 6.68004C1.25911 6.11711 1.26704 5.55418 1.27497 4.99125C1.27827 4.7567 1.28158 4.52215 1.28442 4.28759C1.28517 4.24444 1.28754 4.20074 1.28999 4.15531ZM6.85595 10.3612C6.84387 10.3799 6.83143 10.3992 6.81786 10.4188C6.79328 10.3947 6.77166 10.3737 6.75217 10.3548C6.70956 10.3134 6.67713 10.2819 6.64621 10.2499L6.64472 10.2484C6.26438 9.85572 5.8851 9.46415 5.50583 9.07036C5.33526 8.89376 5.13572 8.79713 4.89219 8.85044C4.64545 8.90487 4.4738 9.05815 4.403 9.3125C4.33005 9.5724 4.39656 9.80009 4.58001 9.99113L4.58102 9.99219C5.13425 10.565 5.6864 11.1366 6.23962 11.7083C6.63012 12.1115 6.95625 12.1104 7.34889 11.7038C8.46782 10.5465 9.58674 9.38802 10.7046 8.22956C10.755 8.17736 10.8065 8.12405 10.8494 8.06518C11.0103 7.84082 11.0329 7.59868 10.9095 7.35211C10.784 7.10331 10.5769 6.99113 10.3066 7.00113C10.1071 7.0089 9.96115 7.11664 9.82598 7.25659C9.34533 7.75533 8.86415 8.25379 8.38296 8.75226C7.90185 9.25065 7.42073 9.74904 6.94016 10.2477C6.90826 10.28 6.88303 10.3191 6.85595 10.3612Z" fill="#FF7300"/>
</svg>
