<svg width="20" height="25" viewBox="0 0 20 25" fill="none" xmlns="http://www.w3.org/2000/svg">
<path d="M17.4886 7.09716C17.2386 6.77716 16.7686 6.71716 16.4386 6.96716C16.2786 7.08716 16.1786 7.25715 16.1486 7.45715C16.1186 7.65715 16.1786 7.84716 16.3086 7.99716C17.2386 9.17716 17.6986 10.5272 17.6986 12.0072C17.6986 14.9972 16.3686 17.4772 14.0586 18.8172C12.4486 19.7572 10.4986 20.2572 8.43859 20.2572H7.09859L8.36859 19.0072C8.50859 18.8672 8.58859 18.6872 8.58859 18.4872C8.58859 18.2872 8.50859 18.1072 8.36859 17.9672C8.07859 17.6872 7.60859 17.6772 7.30859 17.9672L4.77859 20.4472C4.63859 20.5872 4.55859 20.7672 4.55859 20.9672C4.55859 21.1672 4.63859 21.3472 4.77859 21.4872L7.30859 23.9672C7.44859 24.1072 7.63859 24.1872 7.83859 24.1872C8.03859 24.1872 8.21859 24.1172 8.36859 23.9672C8.50859 23.8272 8.58859 23.6472 8.58859 23.4472C8.58859 23.2472 8.50859 23.0671 8.36859 22.9271L7.14859 21.7272H8.42859C10.7586 21.7272 12.9586 21.1572 14.8086 20.0872C17.5886 18.4672 19.1886 15.5172 19.1886 11.9972C19.1886 10.1872 18.6186 8.52716 17.4886 7.09716Z" fill="#707272"/>
<path d="M5.14 5.35751C6.76 4.41751 8.7 3.91751 10.76 3.91751H12.1L10.82 5.16751C10.67 5.31751 10.6 5.50749 10.6 5.70749C10.6 5.89749 10.68 6.0875 10.82 6.2175C11.1 6.4975 11.57 6.5075 11.88 6.2175L14.41 3.73752C14.55 3.59752 14.63 3.4075 14.63 3.2175C14.63 3.0175 14.55 2.83751 14.41 2.69751L11.88 0.2175C11.59 -0.0725 11.12 -0.0725 10.82 0.2175C10.68 0.3575 10.6 0.54752 10.6 0.73752C10.6 0.937519 10.68 1.11752 10.82 1.26752L12.04 2.4675H10.76C8.43 2.4675 6.22 3.03751 4.38 4.10751C1.6 5.71751 0 8.6575 0 12.1875C0 14.0175 0.57 15.6775 1.71 17.1075C1.85 17.2875 2.07 17.3875 2.3 17.3875C2.46 17.3875 2.62 17.3375 2.76 17.2375C2.92 17.1175 3.02 16.9475 3.05 16.7475C3.08 16.5475 3.02 16.3575 2.9 16.2075C1.97 15.0275 1.51 13.6775 1.51 12.1975C1.5 9.18751 2.82 6.70751 5.14 5.35751Z" fill="#707272"/>
<path d="M9.08156 16.6377C9.22156 16.7777 9.41156 16.8577 9.62156 16.8577C10.0316 16.8577 10.3716 16.5277 10.3716 16.1277V15.6176C11.6216 15.5776 12.6316 14.6877 12.6316 13.6077C12.6316 12.4977 11.5716 11.5977 10.2816 11.5977H9.20156C8.60156 11.5977 8.10156 11.2677 8.10156 10.8777C8.10156 10.4877 8.60156 10.1577 9.20156 10.1577H11.2516C11.6616 10.1577 12.0016 9.82764 12.0016 9.42764C12.0016 9.01764 11.6716 8.69766 11.2516 8.69766H10.3616V8.07767C10.3616 7.67767 10.0316 7.34766 9.61156 7.34766C9.19156 7.34766 8.86156 7.67767 8.86156 8.07767V8.72766C7.57156 8.86766 6.60156 9.78764 6.60156 10.8976C6.60156 12.1076 7.76156 13.0876 9.20156 13.0876H10.2716C10.7216 13.0876 11.1216 13.3376 11.1216 13.6176C11.1216 13.8976 10.7116 14.1476 10.2716 14.1476H7.84156C7.43156 14.1476 7.09156 14.4777 7.09156 14.8777C7.09156 15.2777 7.42156 15.6077 7.84156 15.6077H8.87156V16.1176C8.87156 16.3176 8.95156 16.5077 9.08156 16.6377Z" fill="#707272"/>
</svg>
