<svg width="10" height="7" viewBox="0 0 10 7" fill="none" xmlns="http://www.w3.org/2000/svg">
<path d="M0.210441 5.79388C0.471732 6.08388 0.907218 6.09388 1.18786 5.82388C1.19754 5.81388 1.20722 5.80388 1.21689 5.79388L4.84593 1.86389L8.47496 5.79388C8.73625 6.08388 9.17173 6.09388 9.45238 5.82388C9.46206 5.81388 9.47173 5.80388 9.48141 5.79388C9.76206 5.48388 9.76206 5.01389 9.48141 4.70389L5.44593 0.333893C5.4169 0.293893 5.39754 0.253908 5.35883 0.223908C5.08786 -0.066092 4.63302 -0.0761116 4.35238 0.203888C4.3427 0.213888 4.3427 0.213908 4.33302 0.223908C4.30399 0.253908 4.27496 0.293893 4.24592 0.333893L0.210441 4.70389C-0.070204 5.01389 -0.070204 5.48388 0.210441 5.79388Z" fill="#707272"/>
</svg>
