<svg width="48" height="48" viewBox="0 0 48 48" fill="none" xmlns="http://www.w3.org/2000/svg">
<path d="M16.7598 24.0002L21.5798 28.8402L31.2398 19.1602" stroke="url(#paint0_linear_1010_840)" stroke-width="2" stroke-linecap="round" stroke-linejoin="round"/>
<path d="M21.4998 4.90014C22.8798 3.72014 25.1398 3.72014 26.5398 4.90014L29.6998 7.62014C30.2998 8.14014 31.4198 8.56014 32.2198 8.56014H35.6198C37.7398 8.56014 39.4798 10.3001 39.4798 12.4201V15.8201C39.4798 16.6001 39.8998 17.7401 40.4198 18.3401L43.1398 21.5001C44.3198 22.8801 44.3198 25.1401 43.1398 26.5401L40.4198 29.7001C39.8998 30.3001 39.4798 31.4201 39.4798 32.2201V35.6201C39.4798 37.7401 37.7398 39.4801 35.6198 39.4801H32.2198C31.4398 39.4801 30.2998 39.9001 29.6998 40.4201L26.5398 43.1401C25.1598 44.3201 22.8998 44.3201 21.4998 43.1401L18.3398 40.4201C17.7398 39.9001 16.6198 39.4801 15.8198 39.4801H12.3598C10.2398 39.4801 8.49977 37.7401 8.49977 35.6201V32.2001C8.49977 31.4201 8.07977 30.3001 7.57977 29.7001L4.87977 26.5201C3.71977 25.1401 3.71977 22.9001 4.87977 21.5201L7.57977 18.3401C8.07977 17.7401 8.49977 16.6201 8.49977 15.8401V12.4001C8.49977 10.2801 10.2398 8.54014 12.3598 8.54014H15.8198C16.5998 8.54014 17.7398 8.12014 18.3398 7.60014L21.4998 4.90014Z" stroke="url(#paint1_linear_1010_840)" stroke-width="2" stroke-linecap="round" stroke-linejoin="round"/>
<defs>
<linearGradient id="paint0_linear_1010_840" x1="15.7341" y1="30.2922" x2="32.5671" y2="27.4182" gradientUnits="userSpaceOnUse">
<stop offset="0.364467" stop-color="#FF0D26"/>
<stop offset="1" stop-color="#FF7300"/>
</linearGradient>
<linearGradient id="paint1_linear_1010_840" x1="1.17537" y1="50.0266" x2="48.4329" y2="44.6321" gradientUnits="userSpaceOnUse">
<stop offset="0.364467" stop-color="#FF0D26"/>
<stop offset="1" stop-color="#FF7300"/>
</linearGradient>
</defs>
</svg>
