<svg width="33" height="33" xmlns="http://www.w3.org/2000/svg" fill="none">

 <g>
  <title>Layer 1</title>
     <circle id="svg_1" stroke-width="1.75" stroke="#707272" r="15.625" cy="16.5" cx="16.5"/>
     <path id="svg_2"  width="5" height="11" d="M3.18205 1.898C2.94805 1.898 2.75738 1.82433 2.61005 1.677C2.46271 1.52967 2.38905 1.34333 2.38905 1.118C2.38905 0.814667 2.50171 0.554667 2.72705 0.338C2.96105 0.112667 3.22538 0 3.52005 0C3.75405 0 3.94038 0.0736665 4.07905 0.221C4.22638 0.368333 4.30005 0.554666 4.30005 0.78C4.30005 1.08333 4.18738 1.34767 3.96205 1.573C3.73671 1.78967 3.47671 1.898 3.18205 1.898ZM3.74105 2.847L2.48005 10.01H0.998047L2.25905 2.847H3.74105Z" fill="#707272"/>
 </g>
</svg>


